<?xml version="1.0" encoding="UTF-8" standalone="no"?>
<svg
   xmlns:dc="http://purl.org/dc/elements/1.1/"
   xmlns:cc="http://creativecommons.org/ns#"
   xmlns:rdf="http://www.w3.org/1999/02/22-rdf-syntax-ns#"
   xmlns:svg="http://www.w3.org/2000/svg"
   xmlns="http://www.w3.org/2000/svg"
   xml:space="preserve"
   style="enable-background:new 0 0 512 512;"
   viewBox="0 0 512 512"
   y="0px"
   x="0px"
   id="Layer_1"
   version="1.1"><metadata
   id="metadata51"><rdf:RDF><cc:Work
       rdf:about=""><dc:format>image/svg+xml</dc:format><dc:type
         rdf:resource="http://purl.org/dc/dcmitype/StillImage" /><dc:title></dc:title></cc:Work></rdf:RDF></metadata><defs
   id="defs49" />


<path
   style="stroke-width:1.06995356"
   d="m 426.77812,322.56485 h -36.50681 c -38.6724,-0.0599 -70.0092,-31.39672 -70.07768,-70.06911 v -75.43601 c 0.0685,-38.6724 31.40528,-70.00919 70.07768,-70.06911 h 36.50681 c 38.6724,0.0685 70.00064,31.39671 70.06912,70.06911 v 75.44456 c -0.0685,38.66384 -31.40528,69.99208 -70.06912,70.06056 z M 390.27131,149.78876 c -15.05639,0.0171 -27.26242,12.21459 -27.27954,27.27097 v 75.44456 c 0.0171,15.05639 12.22315,27.25386 27.27954,27.27098 h 36.50681 c 15.05639,-0.0171 27.25386,-12.21459 27.27098,-27.27098 V 177.05973 C 454.032,162.00335 441.83451,149.80588 426.77812,149.78876 Z M 410.54907,58.371932 V 367.99936 c -0.13696,48.84979 -39.69956,88.42095 -88.54936,88.56647 H 104.78203 C 55.932233,456.42031 16.369632,416.84915 16.232678,367.99936 V 58.371932"
   id="path6" />

<g
   id="g16">
</g>
<g
   id="g18">
</g>
<g
   id="g20">
</g>
<g
   id="g22">
</g>
<g
   id="g24">
</g>
<g
   id="g26">
</g>
<g
   id="g28">
</g>
<g
   id="g30">
</g>
<g
   id="g32">
</g>
<g
   id="g34">
</g>
<g
   id="g36">
</g>
<g
   id="g38">
</g>
<g
   id="g40">
</g>
<g
   id="g42">
</g>
<g
   id="g44">
</g>
</svg>