<?xml version="1.0" encoding="UTF-8" standalone="no"?>
<svg
   xmlns:dc="http://purl.org/dc/elements/1.1/"
   xmlns:cc="http://creativecommons.org/ns#"
   xmlns:rdf="http://www.w3.org/1999/02/22-rdf-syntax-ns#"
   xmlns:svg="http://www.w3.org/2000/svg"
   xmlns="http://www.w3.org/2000/svg"
   xml:space="preserve"
   style="enable-background:new 0 0 512 512;"
   viewBox="0 0 512 512"
   y="0px"
   x="0px"
   id="Layer_1"
   version="1.1"><metadata
   id="metadata55"><rdf:RDF><cc:Work
       rdf:about=""><dc:format>image/svg+xml</dc:format><dc:type
         rdf:resource="http://purl.org/dc/dcmitype/StillImage" /><dc:title></dc:title></cc:Work></rdf:RDF></metadata><defs
   id="defs53" />
<g
   transform="translate(-36.817492,33.749368)"
   id="g6">
	<g
   id="g4">
		
	</g>
</g>

<g
   id="g18">
	<g
   id="g16">
		<path
   style="stroke-width:1.30313742"
   d="M 489.3316,312.51871 V 181.97822 H 19.58444 v 108.78331 c 0,49.86846 33.742137,91.97674 79.586511,104.77224 9.299189,2.59455 19.081839,4.01236 29.198099,4.01236 h 19.54315 c 29.11339,60.03685 90.68273,101.53135 161.76236,101.53135 99.0645,0 179.65704,-80.59384 179.65704,-179.65834 v -8.90043 H 130.01621 v 8.90043 c 0,11.839 1.16371,23.40825 3.35949,34.61393 h -5.00665 c -15.49691,0 -29.741507,-5.43929 -40.948489,-14.4948 -14.819279,-11.97452 -24.321757,-30.2823 -24.321757,-50.77544 v -65.27024 h 66.917406 v 87.02612 z m 0.001,-177.80137 c 0,-41.654791 -33.34208,-75.531154 -74.8861,-76.647943 -13.30633,-22.949552 -38.18453,-38.403459 -66.69978,-38.403459 -13.85365,0 -26.83942,3.661816 -38.06986,10.041977 -11.23044,-6.378858 -24.2162,-10.041977 -38.06985,-10.041977 -28.51526,0 -53.39345,15.453907 -66.69979,38.403459 -41.54532,1.116789 -74.88609,34.990546 -74.88609,76.647943 v 3.74782 h 359.31538 v -3.74782 z"
   id="path14" />
	</g>
</g>
<g
   id="g20">
</g>
<g
   id="g22">
</g>
<g
   id="g24">
</g>
<g
   id="g26">
</g>
<g
   id="g28">
</g>
<g
   id="g30">
</g>
<g
   id="g32">
</g>
<g
   id="g34">
</g>
<g
   id="g36">
</g>
<g
   id="g38">
</g>
<g
   id="g40">
</g>
<g
   id="g42">
</g>
<g
   id="g44">
</g>
<g
   id="g46">
</g>
<g
   id="g48">
</g>
</svg>