<?xml version="1.0" encoding="UTF-8" standalone="no"?>
<svg
   xmlns:dc="http://purl.org/dc/elements/1.1/"
   xmlns:cc="http://creativecommons.org/ns#"
   xmlns:rdf="http://www.w3.org/1999/02/22-rdf-syntax-ns#"
   xmlns:svg="http://www.w3.org/2000/svg"
   xmlns="http://www.w3.org/2000/svg"
   version="1.1"
   width="512"
   viewBox="0 0 511.098 511.098"
   height="512"
   enable-background="new 0 0 511.098 511.098"
   id="Layer_1">
  <metadata
     id="metadata11">
    <rdf:RDF>
      <cc:Work
         rdf:about="">
        <dc:format>image/svg+xml</dc:format>
        <dc:type
           rdf:resource="http://purl.org/dc/dcmitype/StillImage" />
        <dc:title></dc:title>
      </cc:Work>
    </rdf:RDF>
  </metadata>
  <defs
     id="defs9" />
  <path
     d="m 445.715,116.339 27.668,-29.382 c 22.632,-22.49 22.971,-59.063 0.564,-81.94 -6.173,-6.302 -16.399,-6.804 -22.784,-0.718 -6.529,6.222 -6.622,16.561 -0.281,22.902 4.973,4.973 7.694,11.585 7.664,18.617 -0.035,7.892 -3.05,13.477 -8.262,18.993 -12.08,12.829 -25.466,28.096 -52.145,42.141 -53.558,28.195 -139.935,97.93 -182.238,140.233 -28.736,28.735 -66.048,74.693 -95.058,117.083 -17.38,25.397 -17.964,28.477 -41.844,65.684 -10.419,16.234 -26.679,41.256 -34.336,57.934 0.3,0.33 0.612,0.648 0.917,0.972 55.609,-19.748 191.874,-116.948 243.461,-168.533 22.669,-22.67 59.816,-63.681 89.901,-104.652 5.229,-7.123 15.243,-8.656 22.366,-3.427 7.123,5.229 8.657,15.244 3.427,22.366 -31.116,42.376 -68.478,83.75 -93.067,108.34 -48.88,48.88 -163.388,131.811 -230.335,165.14 77.709,17.66 233.399,-45.765 291.554,-103.921 73.804,-73.805 160.747,-226.575 72.828,-287.832 z M 71.17,382.302 C 103.036,329.197 154.127,263.702 193.273,224.557 237.606,180.224 344.725,92.417 403.107,69.384 334.517,21.235 190.47,104.916 132.051,163.336 73.072,222.315 -0.24,370.131 26.04,454.609 39.507,431.179 58.222,403.876 71.17,382.302 Z"
     id="path4" />
</svg>
