<?xml version="1.0" encoding="UTF-8" standalone="no"?>
<svg
   xmlns:dc="http://purl.org/dc/elements/1.1/"
   xmlns:cc="http://creativecommons.org/ns#"
   xmlns:rdf="http://www.w3.org/1999/02/22-rdf-syntax-ns#"
   xmlns:svg="http://www.w3.org/2000/svg"
   xmlns="http://www.w3.org/2000/svg"
   xml:space="preserve"
   style="enable-background:new 0 0 512.011 512.011;"
   viewBox="0 0 512.011 512.011"
   y="0px"
   x="0px"
   id="Capa_1"
   version="1.1"><metadata
   id="metadata43"><rdf:RDF><cc:Work
       rdf:about=""><dc:format>image/svg+xml</dc:format><dc:type
         rdf:resource="http://purl.org/dc/dcmitype/StillImage" /><dc:title></dc:title></cc:Work></rdf:RDF></metadata><defs
   id="defs41" />
<g
   id="g6">
	<g
   id="g4">
		<path
   id="path2"
   d="m 511.456,467.013 -24.832,-92.704 c -1.408,-5.152 -5.28,-9.28 -10.336,-11.008 L 427.68,346.853 c -36,-62.24 -22.336,-129.408 -10.496,-164.416 18.912,-55.968 3.36,-116.416 -38.688,-150.432 -25.504,-20.64 -57.632,-32 -90.496,-32 -73.92,0 -134.304,56.192 -142.368,128 H 80 c -4.256,0 -8.32,1.696 -11.328,4.672 l -64,64 C 1.696,199.685 0,203.749 0,208.005 v 288 c 0,8.832 7.168,16 16,16 h 288 c 8.832,0 16,-7.168 16,-16 v -288 c 0,-4.256 -1.696,-8.32 -4.672,-11.328 l -64,-64 c -3.008,-2.976 -7.072,-4.672 -11.328,-4.672 h -62.368 c 7.84,-54.144 54.112,-96 110.368,-96 25.568,0 50.56,8.832 70.368,24.864 31.68,25.632 43.136,71.968 28.512,115.296 -13.28,39.264 -28.16,113.888 10.432,185.376 l -30.88,35.168 c -3.52,4.032 -4.8,9.536 -3.424,14.72 l 24.832,92.704 c 1.92,7.168 8.384,11.872 15.456,11.872 1.376,0 2.752,-0.192 4.16,-0.544 l 92.704,-24.832 c 8.512,-2.304 13.6,-11.072 11.296,-19.616 z M 192,208.005 c 0,8.832 -7.168,16 -16,16 h -32 c -8.832,0 -16,-7.168 -16,-16 0,-8.832 7.168,-16 16,-16 h 32 c 8.832,0 16,7.168 16,16 z" />
	</g>
</g>
<g
   id="g8">
</g>
<g
   id="g10">
</g>
<g
   id="g12">
</g>
<g
   id="g14">
</g>
<g
   id="g16">
</g>
<g
   id="g18">
</g>
<g
   id="g20">
</g>
<g
   id="g22">
</g>
<g
   id="g24">
</g>
<g
   id="g26">
</g>
<g
   id="g28">
</g>
<g
   id="g30">
</g>
<g
   id="g32">
</g>
<g
   id="g34">
</g>
<g
   id="g36">
</g>
</svg>