<?xml version="1.0" encoding="UTF-8" standalone="no"?>
<svg
   xmlns="http://www.w3.org/2000/svg"
   viewBox="0, 0, 400,400"
   height="400"
   width="400"
   version="1.1"
   id="svg">
  <g
     id="g5">
    <path
       style="fill:#ffffff;fill-rule:evenodd;stroke:none"
       d="m 350.5,43.075 c -1.96,1.632 -14.022,7.492 -22,10.687 -3.988,1.597 -7.438,3.065 -7.668,3.263 -1.673,1.442 19.273,0.776 23.6,-0.751 4.708,-1.661 7.506,-5.561 7.949,-11.081 0.276,-3.447 0.037,-3.716 -1.881,-2.118 m -147.548,3.8 -115.798,0.127 1.15,2.374 c 2.334,4.821 3.55,43.088 1.25,39.374 C 78.328,70.618 69.053,56.44 65.125,51.41 61.84,47.203 61.178,47 50.712,47 h -8.886 l 1.068,1.138 c 2.636,2.805 2.856,5.411 2.856,33.862 0,27.593 -0.112,29.215 -2.318,33.605 -0.513,1.02 -0.932,1.997 -0.932,2.171 0,0.555 14.916,0.01 15.491,-0.566 0.374,-0.375 0.497,-7.319 0.399,-22.635 -0.115,-18.179 -0.025,-21.938 0.507,-21.21 0.356,0.487 5.081,7.81 10.5,16.273 20.005,31.244 16.923,28.04 27.209,28.291 l 7.54,0.184 -0.406,-1.182 c -0.224,-0.649 -0.498,-14.512 -0.609,-30.806 L 102.93,56.5 h 103.04 103.041 l 2.214,-1.041 c 2.945,-1.384 10.302,-9.598 7.913,-8.835 -0.213,0.068 -52.497,0.181 -116.186,0.251 m -37.723,16.822 c -8.806,2.14 -13.729,7.96 -13.729,16.233 0,7.799 2.668,11.091 13.402,16.538 9.319,4.728 11.194,7.464 7.845,11.445 -4.454,5.292 -15.297,1.918 -18.602,-5.788 l -0.804,-1.875 -1.142,4.75 c -2.161,8.994 -2.177,8.719 0.623,10.495 11.41,7.24 29.231,3.769 33.963,-6.614 4.743,-10.407 0.655,-18.15 -13.265,-25.121 -8.278,-4.146 -9.659,-5.514 -8.539,-8.46 2.091,-5.5 12.897,-4.259 16.322,1.876 1.281,2.293 1.156,2.467 3.179,-4.398 1.554,-5.27 1.579,-5.498 0.691,-6.175 -4.098,-3.121 -13.449,-4.483 -19.944,-2.906 m 45.896,0.031 c -28.847,6.548 -26.811,53.851 2.375,55.164 8.273,0.373 11.745,-1.399 14.678,-7.491 2.768,-5.749 2.879,-6.494 0.684,-4.567 -2.45,2.152 -4.844,2.837 -8.895,2.548 C 200.996,108.024 200.142,72 219.08,72 c 3.124,0 7.228,2.531 8.724,5.38 l 1.118,2.13 2.039,-5.279 c 2.439,-6.315 2.443,-6.375 0.528,-7.738 -4.206,-2.996 -13.681,-4.282 -20.364,-2.765 M 109.12,65.192 c 2.472,1.878 2.593,3.031 2.87,27.558 0.198,17.492 0.415,23.271 0.906,24.132 l 0.647,1.132 16.072,-0.132 16.073,-0.132 1.643,-6.5 c 1.968,-7.786 1.96,-7.698 0.538,-6.362 -2.915,2.739 -10.272,4.42 -16.744,3.827 L 127.5,108.383 V 101.191 94 h 6.464 c 5.067,0 6.626,0.161 7.211,0.747 0.663,0.662 0.779,0.591 1.026,-0.625 0.417,-2.045 1.291,-7.78 1.295,-8.497 C 143.499,85.151 141.569,85 135.5,85 h -8 v -5.768 -5.769 l 6.625,0.308 c 7.626,0.355 9.016,0.746 10.02,2.818 0.782,1.615 1.102,0.256 2.169,-9.214 l 0.324,-2.875 -19.194,0.016 c -16.011,0.013 -19.05,0.125 -18.324,0.676 m 134.355,0.272 c 0.906,0.696 1.208,1.378 1.157,2.614 -0.052,1.255 -11.305,38.246 -14.615,48.047 l -0.465,1.375 6.849,-0.008 c 3.767,-0.004 6.582,-0.177 6.255,-0.385 -1.308,-0.832 -1.581,-2.89 -0.875,-6.595 1.169,-6.138 0.243,-5.558 8.628,-5.4 l 7.333,0.138 1.367,4.25 c 0.752,2.338 1.744,5.094 2.205,6.125 l 0.838,1.875 h 8.718 8.719 l -1.17,-1.408 c -0.75,-0.903 -4.2,-10.389 -9.637,-26.5 l -8.468,-25.092 -9.032,0.011 c -8.947,0.011 -9.021,0.02 -7.807,0.953 m 35.39,0.161 c 2.112,2.287 2.282,4.096 2.609,27.875 0.172,12.513 0.498,23.144 0.723,23.625 0.368,0.785 1.313,0.874 9.231,0.864 8.438,-0.011 8.776,-0.049 7.756,-0.875 C 297.177,115.488 297,114.429 297,104.033 V 94 h 6.086 c 4.961,0 6.254,0.153 7,0.827 0.503,0.456 0.915,0.624 0.916,0.375 10e-4,-0.248 0.335,-2.477 0.741,-4.952 0.407,-2.475 0.743,-4.669 0.748,-4.875 C 312.496,85.169 309.012,85 304.75,85 H 297 v -5.768 -5.769 l 6.625,0.336 c 7.28,0.369 8.014,0.584 9.316,2.725 l 0.888,1.46 0.618,-4.867 c 0.34,-2.677 0.745,-5.711 0.9,-6.742 l 0.281,-1.875 h -18.901 -18.901 l 1.039,1.125 m 39.016,-0.128 c 2.109,1.964 2.272,3.702 2.577,27.503 0.221,17.238 0.449,23.024 0.938,23.882 l 0.647,1.132 16.088,-0.132 16.088,-0.132 1.378,-5.75 c 0.758,-3.162 1.505,-6.274 1.66,-6.915 l 0.282,-1.166 -1.671,1.275 c -3.614,2.756 -9.846,4.107 -16.243,3.521 L 336,108.383 V 101.191 94 h 6.464 c 5.121,0 6.623,0.158 7.226,0.761 0.681,0.681 0.788,0.59 1.027,-0.875 0.147,-0.9 0.495,-2.971 0.775,-4.603 C 351.771,87.651 352,86.02 352,85.658 352,85.141 350.282,85 344,85 h -8 v -5.768 -5.769 l 6.625,0.308 c 7.6,0.354 9.017,0.748 10.002,2.782 0.664,1.37 2.377,-6.699 2.374,-11.178 C 355,64.557 353.757,64.5 335.906,64.5 h -19.095 l 1.07,0.997 m -65.199,22.559 c 1.275,4.293 2.318,7.949 2.318,8.125 0,0.175 -2.153,0.319 -4.784,0.319 -4.32,0 -4.758,-0.085 -4.526,-0.875 0.142,-0.481 1.067,-3.8 2.055,-7.375 2.255,-8.154 2.317,-8.36 2.483,-8.163 0.075,0.09 1.18,3.676 2.454,7.969 m 108.706,21.223 c -1.724,0.936 -2.388,2.176 -2.388,4.461 0,4.217 5.141,5.941 8.125,2.726 3.617,-3.898 -1.043,-9.734 -5.737,-7.187 m 4.795,1.257 c 2.76,2.172 1.013,6.964 -2.539,6.964 -1.384,0 -4.144,-2.493 -4.144,-3.744 0,-3.486 3.935,-5.381 6.683,-3.22 m -4.125,3.089 c 0.032,1.444 0.166,2.175 0.299,1.625 0.419,-1.743 1.068,-1.963 1.699,-0.576 0.333,0.729 0.793,1.326 1.024,1.326 0.54,0 0.523,-0.563 -0.042,-1.456 -0.289,-0.456 -0.205,-0.948 0.236,-1.39 1.092,-1.092 0.314,-2.154 -1.577,-2.154 H 362 l 0.058,2.625 m 2.692,-1.375 c 0,0.275 -0.506,0.572 -1.125,0.66 -0.774,0.11 -1.125,-0.096 -1.125,-0.66 0,-0.564 0.351,-0.77 1.125,-0.66 0.619,0.088 1.125,0.385 1.125,0.66 m -150,27.926 -13,2.074 -0.157,1.625 c -0.143,1.49 -0.038,1.625 1.27,1.625 4.9,0 9.865,2.597 11.767,6.154 l 1.12,2.096 V 195 c 0,32.474 -0.139,41.708 -0.652,43.403 -1.404,4.638 -5.86,7.597 -11.439,7.597 -2.066,0 -2.159,0.065 -2.159,1.5 v 1.5 h 21.5 21.5 v -1.5 c 0,-1.42 -0.108,-1.5 -2.029,-1.5 -3.306,0 -6.283,-0.993 -8.394,-2.8 -3.762,-3.22 -3.577,-0.339 -3.577,-55.789 V 138 l -1.375,0.051 c -0.756,0.027 -7.225,0.984 -14.375,2.125 M 0,145.076 v 1.715 l 4.427,0.515 c 5.726,0.664 8.482,2.175 10.15,5.562 l 1.173,2.382 0.137,48.328 0.137,48.328 3.029,-0.707 c 4.608,-1.075 7.586,-2.542 9.848,-4.853 4.101,-4.189 3.818,-0.84 4.099,-48.596 0.31,-52.718 -1.265,-47.602 14.5,-47.088 30.28,0.989 42.51,15.112 42.497,49.075 -0.01,28.442 -8.218,39.748 -35.782,49.287 -18.439,6.382 -26.822,11.763 -33.214,21.321 -10.701,15.998 -10.389,48.048 0.632,65.012 13.728,21.133 37.303,26.592 80.242,18.584 l 5.625,-1.049 V 324.196 295.5 H 90 72.5 l 0.001,1.375 c 10e-4,1.361 0.056,1.384 5.375,2.243 7.245,1.17 10.358,2.745 12.095,6.119 l 1.279,2.484 v 20.515 20.514 l -3,0.638 c -9.698,2.061 -26.362,-0.014 -34.5,-4.296 C 38.728,337.187 29.779,314.445 32.464,291 34.965,269.157 43.479,259.635 68,251.256 85.26,245.358 94.131,239.851 100.3,231.205 114.124,211.834 111.129,173.339 94.597,157.887 82.322,146.415 71.514,144.091 28.375,143.65 L 0,143.36 v 1.716 m 154.25,16.748 c -18.6,2.987 -29.978,16.727 -31.716,38.301 -2.335,28.991 11.745,48.25 36.003,49.244 22.326,0.914 37.041,-12.219 39.909,-35.619 4.046,-33.021 -15.911,-56.469 -44.196,-51.926 m 123.053,0.444 c -20.313,3.846 -29.446,16.37 -29.52,40.482 -0.093,29.972 15.38,46.658 43.342,46.74 l 3.375,0.01 -0.007,1.625 C 294.44,262.649 285.214,272 273.895,272 H 271.5 v 3 3 h 7 7 l 0.004,26.875 c 0.007,39.165 0.525,42.641 6.934,46.471 4.701,2.809 15.303,4.252 25.19,3.428 L 322,354.41 v -2.83 -2.83 h -7.125 c -7.699,0 -9.601,-0.519 -12.226,-3.333 -2.954,-3.167 -2.886,-2.359 -3.042,-36.292 L 299.464,278 h 10.518 10.518 v -3 -3 H 310 299.5 v -11.192 -11.193 l 4.125,-0.585 c 2.269,-0.322 5.419,-0.94 7,-1.374 l 2.875,-0.788 v -2.738 c 0,-2.587 -0.062,-2.723 -1.125,-2.466 -27.087,6.564 -51.352,-16.467 -49.69,-47.164 0.959,-17.704 9.919,-27.972 23.424,-26.842 7.005,0.586 9.512,2.764 11.853,10.296 2.338,7.527 4.393,9.358 10.044,8.949 11.025,-0.798 10.243,-15.724 -1.124,-21.463 -6.648,-3.356 -20.668,-4.859 -29.579,-3.172 m 77.447,-0.241 c -19.096,2.976 -28.741,16.728 -28.749,40.986 -0.009,30.829 14.964,46.211 44.999,46.228 10.231,0.006 12.905,-0.294 18.875,-2.121 l 2.625,-0.803 v -2.962 c 0,-2.63 -0.098,-2.92 -0.875,-2.588 -10.012,4.277 -25.575,1.728 -34.423,-5.638 -8.769,-7.3 -15.702,-23.167 -15.702,-35.934 V 196 h 26.5 26.5 v -4.67 c 0,-20.693 -16.577,-32.914 -39.75,-29.303 m -189.767,6.016 c 21.776,4.67 24.399,63.916 3.267,73.803 -19.678,9.207 -34.426,-16.819 -28.53,-50.346 3.088,-17.557 12.411,-26.213 25.263,-23.457 m 203.196,1.11 c 5.894,2.699 9.022,8.275 10.079,17.972 L 378.572,190 H 359.966 341.36 l 0.275,-2.625 c 1.491,-14.214 15.017,-23.499 26.544,-18.222 M 117,271.411 c 0,1.366 0.116,1.429 3.587,1.967 4.273,0.661 7.068,2.403 8.618,5.372 1.013,1.938 1.054,2.863 1.326,29.75 0.237,23.416 0.405,28.16 1.079,30.372 6.866,22.552 36.17,21.692 46.234,-1.358 l 1.644,-3.764 0.006,10.375 0.006,10.375 h 7 7 v -42 -42 h -7 -7 v 24.186 c 0,23.879 -0.015,24.246 -1.199,28.914 -6.608,26.048 -30.759,30.926 -33.781,6.823 -0.305,-2.43 -0.52,-15.8 -0.52,-32.285 V 270 H 130.5 117 v 1.411 m 115.915,-0.431 c -15.138,2.761 -23.007,11.405 -21.679,23.814 0.904,8.44 4.941,12.412 21.014,20.675 19.018,9.777 23.985,15.516 20.549,23.742 -6.112,14.627 -29.797,12.757 -36.84,-2.909 l -1.709,-3.801 h -2.125 c -1.69,-10e-4 -2.126,0.178 -2.128,0.874 -0.002,0.481 0.26,4.853 0.58,9.716 l 0.583,8.841 3.295,0.771 c 32.528,7.613 56.567,-3.852 53.108,-25.328 -1.613,-10.012 -5.617,-13.775 -25.313,-23.797 -12.881,-6.554 -16.75,-10.324 -16.75,-16.326 0,-6.726 5.555,-10.808 14.709,-10.808 9.227,0 15.135,4.696 18.468,14.681 0.218,0.656 0.841,0.875 2.484,0.875 h 2.192 l -0.187,-2.375 c -0.103,-1.306 -0.394,-5.388 -0.647,-9.071 -0.254,-3.683 -0.643,-6.873 -0.865,-7.089 -1.809,-1.758 -22.781,-3.572 -28.739,-2.485 m 118.365,0.314 c -19.561,4.368 -30.492,23.174 -27.817,47.858 2.494,23.023 15.554,35.64 36.787,35.541 22.98,-0.108 36.25,-15.463 36.25,-41.943 0,-29.494 -19.349,-47.232 -45.22,-41.456 m 16.715,7.001 c 18.542,10.092 17.218,62.523 -1.76,69.676 -6.373,2.402 -13.857,0.793 -18.589,-3.996 -11.839,-11.983 -11.797,-50.453 0.069,-62.663 5.043,-5.188 13.876,-6.502 20.28,-3.017 m 22.948,67.704 c -5.695,3.01 -3.481,11.992 2.957,11.999 3.869,0.005 6.1,-2.373 6.1,-6.498 0,-5.366 -4.332,-7.998 -9.057,-5.501 m 6.595,1.963 c 3.595,3.595 0.306,9.852 -4.611,8.772 -5.771,-1.268 -4.831,-10.234 1.073,-10.234 1.629,0 2.392,0.315 3.538,1.462 M 392,351.5 c 0,2 0.214,3.5 0.5,3.5 0.275,0 0.5,-0.562 0.5,-1.25 0,-0.687 0.23,-1.25 0.511,-1.25 0.281,0 0.767,0.563 1.08,1.25 0.313,0.688 0.871,1.25 1.239,1.25 0.812,0 0.833,-0.262 0.124,-1.587 -0.395,-0.738 -0.395,-1.172 0,-1.567 1.566,-1.566 0.2,-3.846 -2.304,-3.846 H 392 v 3.5 m 2.888,-1.912 c 0.43,0.43 0.44,0.767 0.039,1.25 -0.901,1.085 -1.927,0.772 -1.927,-0.588 0,-1.325 0.907,-1.643 1.888,-0.662"
       id="path0" />
    <path
       d="m 356.19281,32.138816 -14.62944,-0.08504 c 0,0 -4.45006,18.531102 -13.06337,21.70823 -3.988,1.597 -7.438,3.065 -7.668,3.263 -1.673,1.442 19.273,0.776 23.6,-0.751 4.708,-1.661 9.75316,-6.459865 10.19616,-11.979865"
       id="path0-1"
       style="fill:#ca0000;fill-rule:evenodd;stroke:none" />
  </g>
</svg>
